<svg id="Capa_1" data-name="Capa 1" xmlns="http://www.w3.org/2000/svg" viewBox="0 0 277.49 143.99"><defs><style>.cls-1{fill:none;}.cls-2{fill:#8aa846;}.cls-3{fill:#46469b;}</style></defs><path class="cls-1" d="M218.48,37.84H208v25.3h9c7.35,0,12.52-1.31,15.48-3.71a11.26,11.26,0,0,0,4.47-9.19,11.84,11.84,0,0,0-3.89-9C230.46,38.73,225.61,37.84,218.48,37.84Z"/><path class="cls-2" d="M264.16,23.19c-6.88-6.19-17.76-9.28-31.55-9.28l-46.14-.09v24H135.54L132.66,55.5c3.72-1.77,7.41-3.64,11.07-4.52a46.45,46.45,0,0,1,10.82-1.31q18.09,0,29.37,11T195.2,88.33a47.2,47.2,0,0,1-5.8,22.54,39.55,39.55,0,0,1-16.47,16.51,61.94,61.94,0,0,1-7.26,2.79l42.3,0V85.91h21c15.37,0,26.79-2.74,34.28-9.35s11.23-15.5,11.23-27.24C274.45,37.9,271,29.37,264.16,23.19ZM232.89,59.7c-3,2.41-8.13,3.44-15.48,3.44H208V37.84h10.95c7.13,0,12,1.12,14.56,3.65a12.22,12.22,0,0,1,3.88,9.13A11,11,0,0,1,232.89,59.7Z"/><path class="cls-3" d="M81.26,130.19V82.12H41.09L41,130.19H3.17L3,13.8H40.5l-.08,49.34H80.51l.08-49.34h28.48L98.8,75.62l29.58,3.86.48-1.6c2.9-5.86,7.9-9.47,14.75-9.47a18,18,0,0,1,0,35.94,17.49,17.49,0,0,1-15.17-8.88h-1l-33,3.61a54.13,54.13,0,0,0,6.18,14.21,40.29,40.29,0,0,0,9.67,10.2,41.5,41.5,0,0,0,13.23,6.64l-6.2.05Z"/></svg>