<svg id="Capa_1" data-name="Capa 1" xmlns="http://www.w3.org/2000/svg" viewBox="0 0 150 150"><defs><style>.cls-1{fill:#8aa846;}.cls-2{fill:#474599;}</style></defs><path class="cls-1" d="M126.29.71a7.43,7.43,0,0,1,7.43,7.43V36.05L66.87,102.91l-.05,31.48,31.54.05,35.36-35.36v42.78a7.43,7.43,0,0,1-7.43,7.43H7.43A7.43,7.43,0,0,1,0,141.86V8.14A7.43,7.43,0,0,1,7.43.71ZM66.86,75H29.71V89.86H66.86ZM89.14,45.29H29.71V60.14H89.14Z"/><polygon class="cls-2" points="150 61.79 92.22 119.57 81.7 119.56 81.72 109.07 139.5 51.29 150 61.79"/></svg>