<?xml version="1.0" encoding="UTF-8"?>
<svg id="Capa_1" data-name="Capa 1" xmlns="http://www.w3.org/2000/svg" version="1.1" viewBox="0 0 277.5 144">
  <defs>
    <style>
      .cls-1 {
        fill: #f87553;
      }

      .cls-1, .cls-2 {
        stroke-width: 0px;
      }

      .cls-2 {
        fill: #319494;
      }
    </style>
  </defs>
  <g>
    <path class="cls-1" d="M24.9,118.5c-15,0-23.2-8.8-23.2-24.8v-5.7c0-.8.7-1.5,1.5-1.5h13.8c.8,0,1.5.7,1.5,1.5v6.6c0,6.6,3.1,7.5,6.1,7.5s6.1-.9,6.1-7.5-3-11.2-12-19C6.6,65,2.1,56.8,2.1,45.4s8.2-24.8,23-24.8,23,8.8,23,24.8v2.9c0,.8-.7,1.5-1.5,1.5h-13.8c-.8,0-1.5-.7-1.5-1.5v-3.8c0-6.7-2.8-7.7-5.8-7.7s-5.8.9-5.8,7.7,3,11.2,12,19c12.1,10.6,16.6,18.8,16.6,30.2s-8.3,24.8-23.2,24.8Z"/>
    <path class="cls-1" d="M25.1,22.1c14.2,0,21.5,8.5,21.5,23.3v2.9h-13.8v-3.8c0-6.6-2.7-9.2-7.3-9.2s-7.3,2.5-7.3,9.2,2.9,11.8,12.5,20.2c12.2,10.7,16,18.4,16,29s-7.4,23.3-21.7,23.3S3.2,108.5,3.2,93.7v-5.7h13.8v6.6c0,6.6,2.9,9,7.6,9s7.6-2.4,7.6-9-2.9-11.8-12.5-20.2C7.4,63.7,3.6,56,3.6,45.4s7.3-23.3,21.5-23.3M25.1,19.1C9.5,19.1.6,28.7.6,45.4s4.6,20.3,17.1,31.3c9.7,8.5,11.5,12.7,11.5,17.9s-2.2,6-4.6,6-4.6-.5-4.6-6v-6.6c0-1.6-1.3-3-3-3H3.2c-1.6,0-3,1.3-3,3v5.7c0,16.7,9,26.3,24.7,26.3s24.7-9.6,24.7-26.3-4.6-20.3-17.1-31.3c-9.7-8.5-11.5-12.7-11.5-17.9s2.4-6.2,4.3-6.2,4.3,0,4.3,6.2v3.8c0,1.6,1.3,3,3,3h13.8c1.6,0,3-1.3,3-3v-2.9c0-16.7-8.9-26.3-24.5-26.3h0Z"/>
  </g>
  <g>
    <path class="cls-2" d="M75.6,118.5c-15,0-23.2-8.8-23.2-24.8v-48.3c0-16,8.3-24.8,23.2-24.8s23.2,8.8,23.2,24.8v9c0,.8-.7,1.5-1.5,1.5h-13.8c-.8,0-1.5-.7-1.5-1.5v-9.9c0-6.8-3.2-7.7-6.1-7.7s-6.1.9-6.1,7.7v50.1c0,6.6,3.1,7.5,6.1,7.5s6.1-.9,6.1-7.5v-13.3c0-.8.7-1.5,1.5-1.5h13.8c.8,0,1.5.7,1.5,1.5v12.3c0,16-8.3,24.8-23.2,24.8Z"/>
    <path class="cls-2" d="M75.6,22.1c14.3,0,21.7,8.5,21.7,23.3v9h-13.8v-9.9c0-6.6-2.9-9.2-7.6-9.2s-7.6,2.5-7.6,9.2v50.1c0,6.6,2.9,9,7.6,9s7.6-2.4,7.6-9v-13.3h13.8v12.3c0,14.9-7.4,23.3-21.7,23.3s-21.7-8.5-21.7-23.3v-48.3c0-14.9,7.4-23.3,21.7-23.3M75.6,19.1c-15.7,0-24.7,9.6-24.7,26.3v48.3c0,16.7,9,26.3,24.7,26.3s24.7-9.6,24.7-26.3v-12.3c0-1.6-1.3-3-3-3h-13.8c-1.6,0-3,1.3-3,3v13.3c0,5.6-2.2,6-4.6,6s-4.6-.5-4.6-6v-50.1c0-5.7,2.3-6.2,4.6-6.2s4.6.5,4.6,6.2v9.9c0,1.6,1.3,3,3,3h13.8c1.6,0,3-1.3,3-3v-9c0-16.7-9-26.3-24.7-26.3h0Z"/>
  </g>
  <g>
    <path class="cls-1" d="M127.2,118.5c-15,0-23.6-9-23.6-24.8v-48.3c0-15.8,8.6-24.8,23.6-24.8s23.6,9,23.6,24.8v48.3c0,15.8-8.6,24.8-23.6,24.8ZM127.2,36.8c-2.8,0-6.1.9-6.1,7.7v50.1c0,6.8,3.2,7.7,6.1,7.7s6.1-.9,6.1-7.7v-50.1c0-6.8-3.2-7.7-6.1-7.7Z"/>
    <path class="cls-1" d="M127.2,22.1c14.3,0,22.1,8.5,22.1,23.3v48.3c0,14.9-7.8,23.3-22.1,23.3s-22.1-8.5-22.1-23.3v-48.3c0-14.9,7.8-23.3,22.1-23.3M127.2,103.8c4.6,0,7.6-2.5,7.6-9.2v-50.1c0-6.6-2.9-9.2-7.6-9.2s-7.6,2.5-7.6,9.2v50.1c0,6.6,2.9,9.2,7.6,9.2M127.2,19.1c-8,0-14.2,2.4-18.6,7-4.3,4.6-6.5,11.1-6.5,19.3v48.3c0,8.2,2.2,14.7,6.5,19.3,4.4,4.7,10.7,7,18.6,7s14.2-2.4,18.6-7c4.3-4.6,6.5-11.1,6.5-19.3v-48.3c0-8.2-2.2-14.7-6.5-19.3-4.4-4.7-10.7-7-18.6-7h0ZM127.2,100.8c-2.3,0-4.6-.5-4.6-6.2v-50.1c0-5.7,2.3-6.2,4.6-6.2s4.6.5,4.6,6.2v50.1c0,5.7-2.3,6.2-4.6,6.2h0Z"/>
  </g>
  <g>
    <path class="cls-2" d="M189.3,117.5c-.6,0-1.2-.4-1.4-1h0c-.8-2.6-1.4-4.2-1.4-11.9v-14.6c0-8.6-3-10.3-8.1-10.3h-3.6v36.3c0,.8-.7,1.5-1.5,1.5h-14.6c-.8,0-1.5-.7-1.5-1.5V23.1c0-.8.7-1.5,1.5-1.5h22c15.5,0,23.1,7.5,23.1,22.8v7.3c0,9-2.7,15.2-8.1,18.8,7.4,4.5,8.3,13.3,8.3,19.8v14.3c0,4.2.1,7.5,1.5,10.7.2.5.1,1-.1,1.4s-.7.7-1.2.7h-14.9ZM179,63.4c4.4,0,7.3-1.4,7.3-8.3v-9.2c0-6.7-2.4-8.1-5.9-8.1h-5.5v25.5h4.2Z"/>
    <path class="cls-2" d="M180.8,23.1c15.1,0,21.6,7,21.6,21.4v7.3c0,9.5-3.1,15.6-9.5,18.7v.3c7.3,3.1,9.7,9.9,9.7,19.6v14.3c0,4.5.1,7.8,1.6,11.3h-14.9c-.8-2.4-1.3-3.8-1.3-11.4v-14.6c0-8.6-2.9-11.8-9.5-11.8h-5v37.8h-14.6V23.1h22M173.3,64.9h5.7c5.4,0,8.8-2.4,8.8-9.8v-9.2c0-6.6-2.3-9.5-7.4-9.5h-7v28.5M180.8,20.2h-22c-1.6,0-3,1.3-3,3v92.8c0,1.6,1.3,3,3,3h14.6c1.6,0,3-1.3,3-3v-34.8h2.1c3.9,0,6.6.6,6.6,8.8v14.6c0,7.5.5,9.5,1.4,12.2h0c.4,1.3,1.5,2.1,2.8,2.1h14.9c1,0,1.9-.5,2.5-1.3.6-.8.6-1.9.3-2.8-1.3-3-1.4-5.9-1.4-10.1v-14.3c0-6.3-.8-14.7-7.2-19.8,4.7-4,7.1-10.1,7.1-18.7v-7.3c0-16.4-8-24.3-24.6-24.3h0ZM176.3,39.4h4.1c2.1,0,4.5,0,4.5,6.6v9.2c0,5.8-1.9,6.8-5.8,6.8h-2.7v-22.6h0Z"/>
  </g>
  <g>
    <path class="cls-1" d="M259.4,117.5c-.8,0-1.5-.7-1.5-1.5v-48.1l-7.1,48.3c-.1.7-.7,1.3-1.5,1.3h-13.8c-.7,0-1.3-.5-1.5-1.2l-7.9-49v48.8c0,.8-.7,1.5-1.5,1.5h-12.7c-.8,0-1.5-.7-1.5-1.5V23.1c0-.8.7-1.5,1.5-1.5h20.3c.7,0,1.3.5,1.5,1.2l9.2,57.3,8.5-57.3c.1-.7.7-1.3,1.5-1.3h20.3c.8,0,1.5.7,1.5,1.5v92.8c0,.8-.7,1.5-1.5,1.5h-13.8Z"/>
    <path class="cls-1" d="M273.2,23.1v92.8h-13.8V49.4h-.3l-9.8,66.6h-13.8l-10.6-65.6h-.3v65.6h-12.7V23.1h20.3l10.6,65.9h.3l9.8-65.9h20.3M273.2,20.2h-20.3c-1.5,0-2.7,1.1-2.9,2.5l-7.1,47.8-7.7-47.8c-.2-1.4-1.5-2.5-2.9-2.5h-20.3c-1.6,0-3,1.3-3,3v92.8c0,1.6,1.3,3,3,3h12.7c1.6,0,3-1.3,3-3v-30.3l5,30.8c.2,1.4,1.5,2.5,2.9,2.5h13.8c1.5,0,2.7-1.1,2.9-2.5l4.2-28.3v27.9c0,1.6,1.3,3,3,3h13.8c1.6,0,3-1.3,3-3V23.1c0-1.6-1.3-3-3-3h0Z"/>
  </g>
</svg>